<svg id="Warstwa_1" data-name="Warstwa 1" xmlns="http://www.w3.org/2000/svg" viewBox="0 0 223.64 224.38"><defs><style>.cls-1{fill:#fff;}</style></defs><title>Obszar roboczy 1</title><path class="cls-1" d="M136.39,178.56c0-5.94,1.6-13,7.76-17.84,0-1.51.12-3.08.31-4.7a41.57,41.57,0,0,1,41-36.94h0c.74,0,1.49,0,2.23.06a41.7,41.7,0,0,1,16.72,4.44q.9-5.33,1.78-10.65,4.86-29.1,9.68-58.19,3.79-22.76,7.6-45.51a7.85,7.85,0,0,0-5.94-9A8.46,8.46,0,0,0,211,1.47Q191.51,12.78,171.93,24,88.11,72.37,4.27,120.69c-2.92,1.68-4.44,4.06-4.26,7.42s2,5.72,5.24,7q23.84,9.68,47.6,19.51a2.12,2.12,0,0,0,2.57-.4Q120.18,98.22,185,42.21c.47-.41,1-.8,1.44-1.2l.21.22-1.8,2.24Q132.78,107.22,80.77,171a3.8,3.8,0,0,0-.83,2.22q-.07,21.06,0,42.1A7.91,7.91,0,0,0,85.27,223a7.71,7.71,0,0,0,8.87-2.64q14.42-17.56,28.8-35.15a2.13,2.13,0,0,1,3-.75l10.45,4.28Z"/><path class="cls-1" d="M220.5,177.22c0-3.49-1.81-5.75-5-7-.75-.3-1.5-.55-2.31-.85,0-3.14.08-6.11,0-9.07-.48-14.88-11.61-26.38-26.21-27.16-.5,0-1,0-1.48,0a27.45,27.45,0,0,0-27.15,24.58c-.45,3.86-.07,7.81-.07,11.88-6,1.21-7.89,3.47-7.9,9q0,18.1,0,36.23c0,7.09,2.42,9.53,9.51,9.53h42.31c2.06,0,4.13,0,6.2,0,1.52,0,3.05,0,4.57-.08,4.61-.21,7.48-3,7.5-7.35C220.55,203.7,220.51,190.46,220.5,177.22Zm-19.82-7.59H170.94c0-4.17-.49-8.23.1-12.13,1.06-7,7.56-11.84,14.87-11.84.5,0,1,0,1.51.07A15,15,0,0,1,200.66,160C200.74,163.17,200.68,166.31,200.68,169.63Z"/></svg>